<svg
              fill="#fff"
              viewBox="0 0 149 76"
              xmlns="http://www.w3.org/2000/svg">
              <path d="M34 64.5V1h11v22c1.167-.333 4.2-1.3 7-2.5 3.5-1.5 8.5-2 13.5 1.5S73 34 73 43.5s4 11 9.5 11c4.4 0 6.5-4.667 7-7V1h11l1 23.5c1-1 4-3.2 8-4 5-1 9-.5 14.5 2.5s11.5 11 11 19-3 13-11 20-21.5 1-23.5 0 1-5 2-7.5 2-3.5 4.5-1 4 1.5 7 1.5 6-2.5 8-5.5 1-10 0-13-4.5-6-8-6-5.5 0-9.5 3.5-2.5 9.5-3 13.5S99 57 95 60.5s-9 4-15.5 4S70 62 66.5 59 62 47.5 62 43.5s0-8.5-1.5-11-4-2-8.5-2c-3.6 0-6.167 4-7 6v28H34z" />
              <path d="M12.234 50.925c-.868.093-1.544.484-2.028 1.173-.484.683-.726 1.571-.726 2.665 0 .769.116 1.428.348 1.979.232.55.547.97.945 1.262.398.292.851.441 1.362.448.424 0 .792-.096 1.104-.289.311-.198.576-.467.795-.805.212-.338.391-.713.537-1.124.146-.41.268-.825.368-1.242l.477-1.91c.18-.769.421-1.508.726-2.217a7.814 7.814 0 011.154-1.919 5.117 5.117 0 011.68-1.352c.656-.332 1.425-.497 2.307-.497 1.193 0 2.243.304 3.152.914.901.61 1.607 1.492 2.118 2.645.503 1.147.755 2.536.755 4.166 0 1.585-.245 2.96-.736 4.127-.49 1.16-1.206 2.068-2.147 2.724-.942.65-2.088 1.001-3.44 1.054v-3.629c.709-.053 1.299-.272 1.77-.656.47-.385.821-.885 1.053-1.502.232-.623.348-1.319.348-2.088 0-.802-.12-1.505-.358-2.108-.245-.61-.583-1.087-1.014-1.431a2.45 2.45 0 00-1.531-.528c-.53.007-.968.163-1.313.468-.351.305-.643.732-.875 1.282-.238.544-.45 1.18-.636 1.91l-.597 2.316c-.43 1.677-1.083 3.003-1.958 3.978-.882.967-2.052 1.451-3.51 1.451-1.2 0-2.25-.325-3.152-.974-.902-.656-1.601-1.548-2.098-2.675-.504-1.127-.756-2.403-.756-3.828 0-1.445.252-2.711.756-3.798.497-1.094 1.19-1.952 2.078-2.575.881-.624 1.896-.945 3.042-.965v3.55zM27 43.808H6.636v-7.636c0-1.565.272-2.877.816-3.938.543-1.067 1.306-1.873 2.287-2.416.974-.55 2.11-.826 3.41-.826 1.306 0 2.44.279 3.4.836.955.55 1.694 1.362 2.218 2.436.517 1.074.776 2.393.776 3.957v5.44H16.48v-4.943c0-.914-.126-1.663-.378-2.247-.258-.583-.633-1.014-1.123-1.292-.497-.285-1.107-.428-1.83-.428-.722 0-1.339.143-1.85.428-.516.285-.907.719-1.173 1.302-.271.584-.407 1.336-.407 2.257v3.381H27v3.689zm-9.227-10.52L27 28.247v4.116l-9.227 4.952v-4.027zM6.636 25.597v-4.514l14.756-6.046V14.8L6.636 8.753V4.24H27v3.54H13.01v.189l13.93 5.627v2.645l-13.96 5.628v.19H27v3.539H6.636zm135.336 38.778a3.658 3.658 0 01-2.66-1.09c-.738-.728-1.102-1.614-1.09-2.66-.012-1.023.352-1.898 1.09-2.625a3.658 3.658 0 012.66-1.09c1 0 1.869.363 2.608 1.09.75.727 1.13 1.602 1.142 2.625a3.644 3.644 0 01-.546 1.892 3.912 3.912 0 01-1.364 1.364c-.556.33-1.17.494-1.84.494z" />
            </svg>